<svg width="32" height="32" viewBox="0 0 32 32" fill="none" xmlns="http://www.w3.org/2000/svg">
<path d="M14.647 22.5312C14.647 23.2781 15.2532 23.8843 16.0001 23.8843C16.747 23.8843 17.3532 23.2781 17.3532 22.5312V13.4718C17.3532 12.725 16.747 12.1187 16.0001 12.1187C15.2532 12.1187 14.647 12.725 14.647 13.4718V22.5312ZM16.0001 11.05C16.747 11.05 17.3532 10.4437 17.3532 9.69685V8.34373C17.3532 7.59685 16.747 6.9906 16.0001 6.9906C15.2532 6.9906 14.647 7.59685 14.647 8.34373V9.69685C14.647 10.4437 15.2532 11.05 16.0001 11.05Z" fill="white"/>
<path d="M23.1718 3.97808C21.1187 2.69683 18.8562 2.03121 16.6 1.93433H16.5718L16.5125 1.93121C16.475 1.93121 16.4406 1.92808 16.4031 1.92808C15.5406 1.90308 14.6781 1.95621 13.8281 2.09683C13.7937 2.10308 13.7562 2.10933 13.7218 2.11558L13.6625 2.12496L13.5968 2.13746C11.9531 2.43746 10.3781 3.03746 8.94995 3.90933L8.94683 3.91246C8.9062 3.93746 8.86245 3.96246 8.82183 3.99058L8.80308 4.00308C8.77183 4.02496 8.73745 4.04371 8.7062 4.06558L8.65308 4.09996C8.62183 4.11871 8.5937 4.14058 8.56245 4.15933L8.5187 4.18746C8.48433 4.20933 8.44995 4.23121 8.4187 4.25621L8.3937 4.27496C7.01245 5.21246 5.8187 6.39683 4.8687 7.76871C4.8437 7.80621 4.8187 7.84371 4.7937 7.87808L4.78433 7.89371C4.02183 9.02496 3.43745 10.2625 3.0437 11.5687L3.04058 11.575C3.02495 11.6218 3.01245 11.6687 2.99995 11.7156C2.99683 11.7281 2.99058 11.7437 2.98745 11.7593C2.97808 11.7968 2.96558 11.8312 2.9562 11.8687C2.94995 11.8968 2.94058 11.925 2.93433 11.9531C2.92808 11.975 2.92183 12 2.91558 12.0218L2.87808 12.1625L2.87495 12.1781C2.84683 12.2906 2.82183 12.4 2.79683 12.5125C2.77183 12.625 2.74683 12.7375 2.72495 12.8531C2.72495 12.8593 2.72183 12.8656 2.72183 12.8718C2.71245 12.9187 2.70308 12.9656 2.6937 13.0156C2.69058 13.0375 2.68433 13.0593 2.6812 13.0812C2.67495 13.1125 2.6687 13.1437 2.66558 13.1718C2.65933 13.2062 2.65308 13.2406 2.64995 13.2718C2.64683 13.2906 2.6437 13.3093 2.64058 13.325C2.63433 13.3687 2.62808 13.4125 2.6187 13.4562L2.61558 13.475C2.41558 14.8062 2.41558 16.1593 2.61558 17.4937L2.62495 17.55C2.62808 17.5687 2.6312 17.5906 2.63433 17.6093C2.92808 19.4375 3.5937 21.1875 4.59058 22.7468C5.00933 23.3656 5.85308 23.5281 6.47183 23.1062C7.07495 22.6968 7.24683 21.8875 6.86245 21.2687C6.07808 20.0312 5.55933 18.6812 5.32183 17.2531C5.3187 17.2281 5.31245 17.2 5.30933 17.175C5.11245 15.9531 5.1312 14.7062 5.35933 13.4906C5.36558 13.4625 5.3687 13.4343 5.37495 13.4062C5.37808 13.3937 5.37808 13.3812 5.3812 13.3687C5.39995 13.2812 5.4187 13.1906 5.43745 13.1031C5.4562 13.0156 5.47808 12.9281 5.49995 12.8406C5.50308 12.825 5.50933 12.8093 5.51245 12.7906C5.5187 12.7656 5.52495 12.7437 5.5312 12.7187C5.84683 11.5062 6.37183 10.3593 7.0812 9.32808L7.10308 9.29683L7.10933 9.29058L7.12495 9.26871C7.94683 8.09058 8.98433 7.09996 10.2093 6.32183C11.3968 5.56871 12.6906 5.06246 14.0562 4.81246L14.0781 4.80933H14.0843L14.1281 4.80308C14.7718 4.68746 15.4281 4.63433 16.0812 4.63746V4.64058C16.2875 4.64058 16.4906 4.64996 16.6968 4.66246C17.2625 4.69996 17.8281 4.78121 18.3812 4.90621L18.4312 4.91871V4.91558C19.6062 5.18433 20.7281 5.64996 21.75 6.29058C22.9906 7.06558 24.0437 8.05933 24.875 9.24371C26.4968 11.5531 27.1531 14.4031 26.7125 17.1906C26.4843 18.6218 25.975 19.975 25.2 21.2156C24.425 22.4562 23.4312 23.5093 22.2468 24.3406C19.9375 25.9625 17.0875 26.6187 14.3 26.1781C12.8687 25.95 11.5156 25.4406 10.275 24.6656C9.63433 24.2812 8.80308 24.4875 8.41558 25.1281C8.03745 25.7531 8.22808 26.5656 8.84058 26.9625C15.1843 30.9218 23.5375 28.9906 27.4968 22.6468C31.4562 16.3031 29.5156 7.93746 23.1718 3.97808Z" fill="white"/>
</svg>
