<svg width="32" height="32" viewBox="0 0 32 32" fill="none" xmlns="http://www.w3.org/2000/svg">
<path fill-rule="evenodd" clip-rule="evenodd" d="M14.666 17V17.82H10.666L16 23.634L21.334 17.82H17.334V17H14.666ZM6.00122 12.6055C3.86736 13.711 2.462 15.9986 2.462 18.67C2.462 22.356 5.238 25.37 8.616 25.37H24.616C27.376 25.37 29.538 23.022 29.538 20.004C29.538 18.0461 28.4953 16.2653 27.0041 15.3236C27.5492 14.6479 27.9029 13.8113 27.9828 12.8963C30.3512 14.2486 32 16.9712 32 20.006V20.004C32 24.466 28.746 28 24.614 28H8.614C3.872 28 0 23.8 0 18.672C0 14.124 2.958 10.36 7.076 9.468C8.88 6.108 12.244 4 16 4C19.2215 4 22.1205 5.55182 24.0579 8.03424C23.8751 8.01164 23.6889 8 23.5 8H20.3562C19.0971 7.12827 17.6005 6.628 16 6.628C14.4032 6.628 12.9057 7.12244 11.6553 8H10.5C8.01472 8 6 10.0147 6 12.5C6 12.5353 6.00041 12.5705 6.00122 12.6055Z" fill="white"/>
<path d="M13.1621 14.0176C13.1621 14.6621 12.9294 15.1699 12.4639 15.541C12.0016 15.9121 11.3571 16.0977 10.5303 16.0977C9.76855 16.0977 9.09473 15.9544 8.50879 15.668V14.2617C8.99056 14.4766 9.39746 14.6279 9.72949 14.7158C10.0648 14.8037 10.3708 14.8477 10.6475 14.8477C10.9795 14.8477 11.2334 14.7842 11.4092 14.6572C11.5882 14.5303 11.6777 14.3415 11.6777 14.0908C11.6777 13.9508 11.6387 13.8271 11.5605 13.7197C11.4824 13.609 11.3669 13.5033 11.2139 13.4023C11.0641 13.3014 10.7565 13.1403 10.291 12.9189C9.85482 12.7139 9.52767 12.5169 9.30957 12.3281C9.09147 12.1393 8.91732 11.9196 8.78711 11.6689C8.6569 11.4183 8.5918 11.1253 8.5918 10.79C8.5918 10.1585 8.80501 9.66211 9.23145 9.30078C9.66113 8.93945 10.2536 8.75879 11.0088 8.75879C11.3799 8.75879 11.7331 8.80273 12.0684 8.89062C12.4069 8.97852 12.7601 9.10221 13.1279 9.26172L12.6396 10.4385C12.2588 10.2822 11.943 10.1732 11.6924 10.1113C11.445 10.0495 11.2008 10.0186 10.96 10.0186C10.6735 10.0186 10.4538 10.0853 10.3008 10.2188C10.1478 10.3522 10.0713 10.5264 10.0713 10.7412C10.0713 10.8747 10.1022 10.9919 10.1641 11.0928C10.2259 11.1904 10.3236 11.2865 10.457 11.3809C10.5938 11.472 10.9144 11.638 11.4189 11.8789C12.0863 12.1979 12.5436 12.5186 12.791 12.8408C13.0384 13.1598 13.1621 13.5521 13.1621 14.0176ZM15.9697 12.0303H16.458C16.9365 12.0303 17.2897 11.9505 17.5176 11.791C17.7454 11.6315 17.8594 11.3809 17.8594 11.0391C17.8594 10.7005 17.7422 10.4596 17.5078 10.3164C17.2767 10.1732 16.917 10.1016 16.4287 10.1016H15.9697V12.0303ZM15.9697 13.2607V16H14.4561V8.86133H16.5361C17.5062 8.86133 18.224 9.03874 18.6895 9.39355C19.1549 9.74512 19.3877 10.2806 19.3877 11C19.3877 11.4199 19.2721 11.7943 19.041 12.123C18.8099 12.4486 18.4827 12.7041 18.0596 12.8896C19.1338 14.4945 19.8337 15.5312 20.1592 16H18.4795L16.7754 13.2607H15.9697ZM23.8115 16H22.2979V10.1211H20.3594V8.86133H25.75V10.1211H23.8115V16Z" fill="white"/>
</svg>
