<svg width="32" height="32" viewBox="0 0 32 32" fill="none" xmlns="http://www.w3.org/2000/svg">
<path fill-rule="evenodd" clip-rule="evenodd" d="M14.666 17.0001V17.82H10.666L16 23.634L21.334 17.82H17.334V17.0001H14.666ZM3.61053 14.7647C2.88166 15.865 2.462 17.2102 2.462 18.67C2.462 22.356 5.238 25.37 8.616 25.37H24.616C27.376 25.37 29.538 23.022 29.538 20.004C29.538 18.0461 28.4953 16.2653 27.0041 15.3236C27.5493 14.6479 27.903 13.8113 27.9828 12.8963C30.3512 14.2486 32 16.9712 32 20.006V20.004C32 24.466 28.746 28 24.614 28H8.614C3.872 28 0 23.8 0 18.672C0 15.7867 1.19051 13.217 3.11246 11.4959C3.03886 11.8188 3 12.1549 3 12.5001C3 13.3258 3.22238 14.0995 3.61053 14.7647ZM20.3563 8.00006C19.0972 7.1283 17.6005 6.628 16 6.628C14.4031 6.628 12.9056 7.12246 11.6552 8.00006H8.02216C9.93146 5.50558 12.8257 4 16 4C19.2215 4 22.1206 5.55185 24.0579 8.03431C23.8751 8.01171 23.6889 8.00006 23.5 8.00006H20.3563Z" fill="white"/>
<path d="M8.70801 16L6.98926 10.3994H6.94531C7.00716 11.5387 7.03809 12.2988 7.03809 12.6797V16H5.68555V8.86133H7.74609L9.43555 14.3203H9.46484L11.2568 8.86133H13.3174V16H11.9062V12.6211C11.9062 12.4616 11.9079 12.2777 11.9111 12.0693C11.9176 11.861 11.9404 11.3076 11.9795 10.4092H11.9355L10.0947 16H8.70801ZM16.6328 12.2207H17.1309C17.5964 12.2207 17.9447 12.1296 18.1758 11.9473C18.4069 11.7617 18.5225 11.4932 18.5225 11.1416C18.5225 10.7868 18.4248 10.5247 18.2295 10.3555C18.0374 10.1862 17.7347 10.1016 17.3213 10.1016H16.6328V12.2207ZM20.0508 11.0879C20.0508 11.8561 19.8099 12.4437 19.3281 12.8506C18.8496 13.2575 18.1676 13.4609 17.2822 13.4609H16.6328V16H15.1191V8.86133H17.3994C18.2653 8.86133 18.9229 9.0485 19.3721 9.42285C19.8245 9.79395 20.0508 10.349 20.0508 11.0879ZM26.0518 14.5205H25.1924V16H23.7178V14.5205H20.6709V13.4707L23.8008 8.86133H25.1924V13.3486H26.0518V14.5205ZM23.7178 13.3486V12.1377C23.7178 11.9359 23.7259 11.6429 23.7422 11.2588C23.7585 10.8747 23.7715 10.6517 23.7812 10.5898H23.7422C23.6217 10.8568 23.4769 11.1172 23.3076 11.3711L21.999 13.3486H23.7178Z" fill="white"/>
</svg>
