<svg width="32" height="32" viewBox="0 0 32 32" fill="none" xmlns="http://www.w3.org/2000/svg">
<path d="M21.6252 21.6253L22.6879 19.8747L16.6879 16.2493V9.31199H14.6879V17.312L21.6252 21.6253ZM15.9999 2.68799C19.6665 2.68799 22.8021 3.99021 25.4065 6.59466C28.011 9.1991 29.3132 12.3347 29.3132 16.0013C29.3132 19.668 28.011 22.8035 25.4065 25.408C22.8021 28.0124 19.6665 29.3147 15.9999 29.3147C12.3332 29.3147 9.19763 28.0124 6.59319 25.408C3.98875 22.8035 2.68652 19.668 2.68652 16.0013C2.68652 12.3347 3.98875 9.1991 6.59319 6.59466C9.19763 3.99021 12.3332 2.68799 15.9999 2.68799Z" fill="white"/>
</svg>
